<mxfile modified="2024-05-05T10:52:27.150Z" host="app.diagrams.net" agent="Mozilla/5.0 (X11; Ubuntu; Linux x86_64; rv:125.0) Gecko/20100101 Firefox/125.0" etag="SRwHxNtEBzPvcOBFgBIz" version="24.3.1" type="github">
  <diagram id="WI9T0HZ2pTsCkuznbFz-" name="Page-1">
    <mxGraphModel dx="2868" dy="1476" grid="1" gridSize="10" guides="1" tooltips="1" connect="1" arrows="1" fold="1" page="1" pageScale="1" pageWidth="2336" pageHeight="1654" math="0" shadow="0">
      <root>
        <mxCell id="0" />
        <mxCell id="1" parent="0" />
        <mxCell id="EJz1VtDRFE4pYMP8z0xR-24" style="edgeStyle=orthogonalEdgeStyle;rounded=0;orthogonalLoop=1;jettySize=auto;html=1;exitX=0;exitY=0;exitDx=0;exitDy=0;" edge="1" parent="1" source="RLjyjs_sm2IHfBNOWAbh-21">
          <mxGeometry relative="1" as="geometry">
            <mxPoint x="480" y="380" as="targetPoint" />
          </mxGeometry>
        </mxCell>
        <mxCell id="RLjyjs_sm2IHfBNOWAbh-21" value="Machine&lt;br&gt;Learning" style="aspect=fixed;html=1;perimeter=none;align=center;shadow=0;dashed=0;image;fontSize=12;image=img/lib/mscae/Machine_Learning.svg;labelBackgroundColor=#ffffff;fillColor=#4D9900;" parent="1" vertex="1">
          <mxGeometry x="278" y="70.00000000000011" width="49" height="50" as="geometry" />
        </mxCell>
        <mxCell id="EJz1VtDRFE4pYMP8z0xR-1" value="" style="shape=actor;whiteSpace=wrap;html=1;" vertex="1" parent="1">
          <mxGeometry x="100" y="70" width="40" height="60" as="geometry" />
        </mxCell>
        <mxCell id="EJz1VtDRFE4pYMP8z0xR-2" value="" style="outlineConnect=0;dashed=0;verticalLabelPosition=bottom;verticalAlign=top;align=center;html=1;shape=mxgraph.aws3.classic_load_balancer;fillColor=#F58536;gradientColor=none;" vertex="1" parent="1">
          <mxGeometry x="130" y="188" width="69" height="72" as="geometry" />
        </mxCell>
        <mxCell id="EJz1VtDRFE4pYMP8z0xR-3" value="User" style="text;html=1;align=center;verticalAlign=middle;resizable=0;points=[];autosize=1;strokeColor=none;fillColor=none;" vertex="1" parent="1">
          <mxGeometry x="85" y="18" width="50" height="30" as="geometry" />
        </mxCell>
        <mxCell id="EJz1VtDRFE4pYMP8z0xR-10" value="" style="group" vertex="1" connectable="0" parent="1">
          <mxGeometry x="160" y="334" width="118" height="118" as="geometry" />
        </mxCell>
        <mxCell id="EJz1VtDRFE4pYMP8z0xR-4" value="" style="image;aspect=fixed;html=1;points=[];align=center;fontSize=12;image=img/lib/azure2/other/Container_App_Environments.svg;flipV=0;" vertex="1" parent="EJz1VtDRFE4pYMP8z0xR-10">
          <mxGeometry width="68" height="68" as="geometry" />
        </mxCell>
        <mxCell id="EJz1VtDRFE4pYMP8z0xR-5" value="" style="image;aspect=fixed;html=1;points=[];align=center;fontSize=12;image=img/lib/azure2/other/Container_App_Environments.svg;flipV=0;" vertex="1" parent="EJz1VtDRFE4pYMP8z0xR-10">
          <mxGeometry x="10" y="10" width="68" height="68" as="geometry" />
        </mxCell>
        <mxCell id="EJz1VtDRFE4pYMP8z0xR-6" value="" style="image;aspect=fixed;html=1;points=[];align=center;fontSize=12;image=img/lib/azure2/other/Container_App_Environments.svg;flipV=0;" vertex="1" parent="EJz1VtDRFE4pYMP8z0xR-10">
          <mxGeometry x="20" y="20" width="68" height="68" as="geometry" />
        </mxCell>
        <mxCell id="EJz1VtDRFE4pYMP8z0xR-7" value="" style="image;aspect=fixed;html=1;points=[];align=center;fontSize=12;image=img/lib/azure2/other/Container_App_Environments.svg;flipV=0;" vertex="1" parent="EJz1VtDRFE4pYMP8z0xR-10">
          <mxGeometry x="30" y="30" width="68" height="68" as="geometry" />
        </mxCell>
        <mxCell id="EJz1VtDRFE4pYMP8z0xR-8" value="" style="image;aspect=fixed;html=1;points=[];align=center;fontSize=12;image=img/lib/azure2/other/Container_App_Environments.svg;flipV=0;" vertex="1" parent="EJz1VtDRFE4pYMP8z0xR-10">
          <mxGeometry x="40" y="40" width="68" height="68" as="geometry" />
        </mxCell>
        <mxCell id="EJz1VtDRFE4pYMP8z0xR-9" value="" style="image;aspect=fixed;html=1;points=[];align=center;fontSize=12;image=img/lib/azure2/other/Container_App_Environments.svg;flipV=0;" vertex="1" parent="EJz1VtDRFE4pYMP8z0xR-10">
          <mxGeometry x="50" y="50" width="68" height="68" as="geometry" />
        </mxCell>
        <mxCell id="EJz1VtDRFE4pYMP8z0xR-11" value="Load Balancer" style="text;html=1;align=center;verticalAlign=middle;resizable=0;points=[];autosize=1;strokeColor=none;fillColor=none;" vertex="1" parent="1">
          <mxGeometry x="30" y="200" width="100" height="30" as="geometry" />
        </mxCell>
        <mxCell id="EJz1VtDRFE4pYMP8z0xR-12" value="App Servers" style="text;html=1;align=center;verticalAlign=middle;resizable=0;points=[];autosize=1;strokeColor=none;fillColor=none;" vertex="1" parent="1">
          <mxGeometry x="60" y="370" width="90" height="30" as="geometry" />
        </mxCell>
        <mxCell id="EJz1VtDRFE4pYMP8z0xR-15" value="" style="shape=image;verticalLabelPosition=bottom;labelBackgroundColor=#ffffff;verticalAlign=top;aspect=fixed;imageAspect=0;image=data:image/svg+xml,PHN2ZyB4bWxuczpkYz0iaHR0cDovL3B1cmwub3JnL2RjL2VsZW1lbnRzLzEuMS8iIHhtbG5zOmNjPSJodHRwOi8vY3JlYXRpdmVjb21tb25zLm9yZy9ucyMiIHhtbG5zOnJkZj0iaHR0cDovL3d3dy53My5vcmcvMTk5OS8wMi8yMi1yZGYtc3ludGF4LW5zIyIgeG1sbnM6c3ZnPSJodHRwOi8vd3d3LnczLm9yZy8yMDAwL3N2ZyIgeG1sbnM9Imh0dHA6Ly93d3cudzMub3JnLzIwMDAvc3ZnIiB4bWxuczpzb2RpcG9kaT0iaHR0cDovL3NvZGlwb2RpLnNvdXJjZWZvcmdlLm5ldC9EVEQvc29kaXBvZGktMC5kdGQiIHhtbG5zOmlua3NjYXBlPSJodHRwOi8vd3d3Lmlua3NjYXBlLm9yZy9uYW1lc3BhY2VzL2lua3NjYXBlIiB2ZXJzaW9uPSIxLjEiIGlkPSJzdmc3NDEyNiIgaW5rc2NhcGU6dmVyc2lvbj0iMC45Mi4zICgyNDA1NTQ2LCAyMDE4LTAzLTExKSIgc29kaXBvZGk6ZG9jbmFtZT0iY29udGVudF9kZWxpdmVyeV9uZXR3b3JrX2Nkbi5zdmciIHg9IjBweCIgeT0iMHB4IiB2aWV3Qm94PSIwIDAgMTY2LjAyIDc1LjcxIiB4bWw6c3BhY2U9InByZXNlcnZlIiB3aWR0aD0iMTY2LjAyIiBoZWlnaHQ9Ijc1LjcwOTk5OSI+PG1ldGFkYXRhIGlkPSJtZXRhZGF0YTIxODA1Ij48cmRmOlJERj48Y2M6V29yayByZGY6YWJvdXQ9IiI+PGRjOmZvcm1hdD5pbWFnZS9zdmcreG1sPC9kYzpmb3JtYXQ+PGRjOnR5cGUgcmRmOnJlc291cmNlPSJodHRwOi8vcHVybC5vcmcvZGMvZGNtaXR5cGUvU3RpbGxJbWFnZSIvPjxkYzp0aXRsZS8+PC9jYzpXb3JrPjwvcmRmOlJERj48L21ldGFkYXRhPjxkZWZzIGlkPSJkZWZzMjE4MDMiLz4mI3hhOzxmaWx0ZXIgaWQ9ImZpbHRlcl8yIj4mI3hhOwk8ZmVHYXVzc2lhbkJsdXIgaWQ9ImZlR2F1c3NpYW5CbHVyNzQwNzUiIHN0ZERldmlhdGlvbj0iMiIvPiYjeGE7PC9maWx0ZXI+JiN4YTs8c29kaXBvZGk6bmFtZWR2aWV3IGJvcmRlcmNvbG9yPSIjNjY2NjY2IiBib3JkZXJvcGFjaXR5PSIxIiBmaXQtbWFyZ2luLWJvdHRvbT0iMCIgZml0LW1hcmdpbi1sZWZ0PSIwIiBmaXQtbWFyZ2luLXJpZ2h0PSIwIiBmaXQtbWFyZ2luLXRvcD0iMCIgZ3JpZHRvbGVyYW5jZT0iMTAiIGd1aWRldG9sZXJhbmNlPSIxMCIgaWQ9Im5hbWVkdmlldzc0MTI4IiBpbmtzY2FwZTpjdXJyZW50LWxheWVyPSJzdmc3NDEyNiIgaW5rc2NhcGU6Y3g9IjE0LjAxMTU1MSIgaW5rc2NhcGU6Y3k9IjMzLjI0NzMwMSIgaW5rc2NhcGU6cGFnZW9wYWNpdHk9IjAiIGlua3NjYXBlOnBhZ2VzaGFkb3c9IjIiIGlua3NjYXBlOndpbmRvdy1oZWlnaHQ9IjEwMTciIGlua3NjYXBlOndpbmRvdy1tYXhpbWl6ZWQ9IjEiIGlua3NjYXBlOndpbmRvdy13aWR0aD0iMTkyMCIgaW5rc2NhcGU6d2luZG93LXg9Ii04IiBpbmtzY2FwZTp3aW5kb3cteT0iLTgiIGlua3NjYXBlOnpvb209IjIuMjk0NjgzNSIgb2JqZWN0dG9sZXJhbmNlPSIxMCIgcGFnZWNvbG9yPSIjZmZmZmZmIiBzaG93Z3JpZD0iZmFsc2UiPiYjeGE7CTwvc29kaXBvZGk6bmFtZWR2aWV3PiYjeGE7JiN4YTs8cGF0aCBpZD0icGF0aDc0MDg4IiBpbmtzY2FwZTpjb25uZWN0b3ItY3VydmF0dXJlPSIwIiBzdHlsZT0iZmlsbDojN2E3YTdhIiBkPSJNIDExNS44OSwyMC4yNiBIIDI3LjU2IGMgLTMuNjUsMCAtNi42NCwtMi45OSAtNi42NCwtNi42NCAwLC0zLjY2IDIuOTksLTYuNjQgNi42NCwtNi42NCBoIDg4LjMzIGMgMy42NSwwIDYuNjQsMi45OCA2LjY0LDYuNjQgMCwzLjY1IC0yLjk5LDYuNjQgLTYuNjQsNi42NCB6Ii8+JiN4YTsmI3hhOzxwYXRoIGlkPSJwYXRoNzQwOTYiIGlua3NjYXBlOmNvbm5lY3Rvci1jdXJ2YXR1cmU9IjAiIHN0eWxlPSJmaWxsOiM3YTdhN2EiIGQ9Ik0gOTcuOTYsNzUuNzEgSCAxNi4yNyBjIC0zLjY1LDAgLTYuNjQsLTIuOTkgLTYuNjQsLTYuNjQgMCwtMy42NiAyLjk5LC02LjY0IDYuNjQsLTYuNjQgaCA4MS42OSBjIDMuNjUsMCA2LjY0LDIuOTggNi42NCw2LjY0IDAsMy42NSAtMi45OSw2LjY0IC02LjY0LDYuNjQgeiIvPiYjeGE7JiN4YTs8cGF0aCBpZD0icGF0aDc0MTA0IiBpbmtzY2FwZTpjb25uZWN0b3ItY3VydmF0dXJlPSIwIiBzdHlsZT0iZmlsbDojN2E3YTdhIiBkPSJNIDg4LjMzLDQ4LjgxIEggNi42NCBDIDIuOTksNDguODEgMCw0NS44MiAwLDQyLjE3IDAsMzguNTEgMi45OSwzNS41MyA2LjY0LDM1LjUzIGggODEuNjkgYyAzLjY1LDAgNi42NCwyLjk4IDYuNjQsNi42NCAwLDMuNjUgLTIuOTksNi42NCAtNi42NCw2LjY0IHoiLz4mI3hhOyYjeGE7PHBhdGggaWQ9InBhdGg3NDExMiIgaW5rc2NhcGU6Y29ubmVjdG9yLWN1cnZhdHVyZT0iMCIgc3R5bGU9ImZpbGw6IzM5OTljNiIgZD0ibSAxNjYuMDIsNjEuNDMgYyAwLC03Ljk3IC02LjMsLTE0LjI4IC0xMy45NCwtMTQuMjggLTAuNjcsMCAtMSwwIC0xLjk5LDAgMC42NiwtMi45OSAxLjMyLC02LjMxIDEuMzIsLTkuOTYgQyAxNTEuNDEsMTYuNiAxMzQuNDgsMCAxMTQuMjIsMCA5Ny45NSwwIDg0LjAxLDEwLjk2IDc5LjAzLDI1LjI0IGMgLTIuNjYsLTAuNjcgLTUuMzIsLTEuMzMgLTguMywtMS4zMyAtMTQuMjgsMCAtMjUuMjQsMTEuNjIgLTI1LjI0LDI1LjkgMCwxNC4yOCAxMS4yOSwyNS45IDI1LjI0LDI1LjkgaCA4Mi4wMSBjIDcuNjQsLTEgMTMuMjgsLTYuOTggMTMuMjgsLTE0LjI4IHoiLz4mI3hhOyYjeGE7PHBhdGggaWQ9InBhdGg3NDEyMCIgaW5rc2NhcGU6Y29ubmVjdG9yLWN1cnZhdHVyZT0iMCIgc3R5bGU9ImZpbGw6I2ZmZmZmZjtmaWxsLW9wYWNpdHk6MC4yIiBkPSJNIDg0LjAxLDc1LjM4IEMgODAuNjksNzIuMDUgNzguMDMsNjguMDcgNzcuMDMsNjIuNzYgNzQuMDUsNDguODEgODIuMzUsMzUuMiA5NS45NiwzMi4yMSBjIDIuOTksLTAuNjcgNS42NSwtMC42NyA4LjYzLC0wLjMzIDEsLTEyLjk1IDguOTcsLTI0LjI0IDIwLjkyLC0yOS44OSBDIDEyMS44NiwxIDExOC4yMSwwIDExNC4yMiwwIDk3Ljk1LDAgODQuMDEsMTAuOTYgNzkuMDMsMjUuMjQgYyAtMi42NiwtMC42NyAtNS4zMiwtMS4zMyAtOC4zLC0xLjMzIC0xNC4yOCwwIC0yNS4yNCwxMS42MiAtMjUuMjQsMjUuOSAwLDE0LjI4IDExLjI5LDI1LjkgMjUuMjQsMjUuOSB6Ii8+JiN4YTs8L3N2Zz4=;" vertex="1" parent="1">
          <mxGeometry x="379" y="1405" width="166" height="76" as="geometry" />
        </mxCell>
        <mxCell id="EJz1VtDRFE4pYMP8z0xR-16" value="" style="edgeStyle=none;orthogonalLoop=1;jettySize=auto;html=1;rounded=0;" edge="1" parent="1">
          <mxGeometry width="100" relative="1" as="geometry">
            <mxPoint x="240" y="450" as="sourcePoint" />
            <mxPoint x="120" y="690" as="targetPoint" />
            <Array as="points" />
          </mxGeometry>
        </mxCell>
        <mxCell id="EJz1VtDRFE4pYMP8z0xR-17" value="" style="edgeStyle=none;orthogonalLoop=1;jettySize=auto;html=1;rounded=0;" edge="1" parent="1">
          <mxGeometry width="100" relative="1" as="geometry">
            <mxPoint x="240" y="450" as="sourcePoint" />
            <mxPoint x="470" y="1370" as="targetPoint" />
            <Array as="points" />
          </mxGeometry>
        </mxCell>
        <mxCell id="EJz1VtDRFE4pYMP8z0xR-19" value="" style="image;aspect=fixed;html=1;points=[];align=center;fontSize=12;image=img/lib/azure2/analytics/Event_Hub_Clusters.svg;" vertex="1" parent="1">
          <mxGeometry x="610" y="355.5" width="144" height="117" as="geometry" />
        </mxCell>
        <mxCell id="EJz1VtDRFE4pYMP8z0xR-20" value="&lt;div&gt;EventHub Clusters&lt;/div&gt;" style="text;html=1;align=center;verticalAlign=middle;resizable=0;points=[];autosize=1;strokeColor=none;fillColor=none;" vertex="1" parent="1">
          <mxGeometry x="634" y="490" width="120" height="30" as="geometry" />
        </mxCell>
        <mxCell id="EJz1VtDRFE4pYMP8z0xR-25" value="" style="image;sketch=0;aspect=fixed;html=1;points=[];align=center;fontSize=12;image=img/lib/mscae/Cognitive_Services.svg;" vertex="1" parent="1">
          <mxGeometry x="430" y="388" width="86.67" height="52" as="geometry" />
        </mxCell>
        <mxCell id="EJz1VtDRFE4pYMP8z0xR-26" value="" style="group" vertex="1" connectable="0" parent="1">
          <mxGeometry x="950" y="250" width="68" height="346" as="geometry" />
        </mxCell>
        <mxCell id="EJz1VtDRFE4pYMP8z0xR-18" value="" style="image;aspect=fixed;html=1;points=[];align=center;fontSize=12;image=img/lib/azure2/compute/Function_Apps.svg;" vertex="1" parent="EJz1VtDRFE4pYMP8z0xR-26">
          <mxGeometry width="68" height="60" as="geometry" />
        </mxCell>
        <mxCell id="EJz1VtDRFE4pYMP8z0xR-21" value="" style="image;aspect=fixed;html=1;points=[];align=center;fontSize=12;image=img/lib/azure2/compute/Function_Apps.svg;" vertex="1" parent="EJz1VtDRFE4pYMP8z0xR-26">
          <mxGeometry y="96" width="68" height="60" as="geometry" />
        </mxCell>
        <mxCell id="EJz1VtDRFE4pYMP8z0xR-22" value="" style="image;aspect=fixed;html=1;points=[];align=center;fontSize=12;image=img/lib/azure2/compute/Function_Apps.svg;" vertex="1" parent="EJz1VtDRFE4pYMP8z0xR-26">
          <mxGeometry y="196" width="68" height="60" as="geometry" />
        </mxCell>
        <mxCell id="EJz1VtDRFE4pYMP8z0xR-23" value="" style="image;aspect=fixed;html=1;points=[];align=center;fontSize=12;image=img/lib/azure2/compute/Function_Apps.svg;" vertex="1" parent="EJz1VtDRFE4pYMP8z0xR-26">
          <mxGeometry y="286" width="68" height="60" as="geometry" />
        </mxCell>
        <mxCell id="EJz1VtDRFE4pYMP8z0xR-27" value="Cognitive Services" style="text;html=1;align=center;verticalAlign=middle;resizable=0;points=[];autosize=1;strokeColor=none;fillColor=none;" vertex="1" parent="1">
          <mxGeometry x="413.33" y="442.5" width="120" height="30" as="geometry" />
        </mxCell>
        <mxCell id="EJz1VtDRFE4pYMP8z0xR-28" value="&lt;div&gt;Location Service&lt;/div&gt;" style="text;html=1;align=center;verticalAlign=middle;resizable=0;points=[];autosize=1;strokeColor=none;fillColor=none;" vertex="1" parent="1">
          <mxGeometry x="1023" y="260" width="110" height="30" as="geometry" />
        </mxCell>
        <mxCell id="EJz1VtDRFE4pYMP8z0xR-29" value="User Services" style="text;html=1;align=center;verticalAlign=middle;resizable=0;points=[];autosize=1;strokeColor=none;fillColor=none;" vertex="1" parent="1">
          <mxGeometry x="1023" y="358" width="100" height="30" as="geometry" />
        </mxCell>
        <mxCell id="EJz1VtDRFE4pYMP8z0xR-30" value="Intrest Services&lt;span style=&quot;white-space: pre;&quot;&gt;&#x9;&lt;/span&gt;" style="text;html=1;align=center;verticalAlign=middle;resizable=0;points=[];autosize=1;strokeColor=none;fillColor=none;" vertex="1" parent="1">
          <mxGeometry x="1018" y="460" width="130" height="30" as="geometry" />
        </mxCell>
        <mxCell id="EJz1VtDRFE4pYMP8z0xR-31" value="HashTag Services" style="text;html=1;align=center;verticalAlign=middle;resizable=0;points=[];autosize=1;strokeColor=none;fillColor=none;" vertex="1" parent="1">
          <mxGeometry x="1013" y="548" width="120" height="30" as="geometry" />
        </mxCell>
        <mxCell id="EJz1VtDRFE4pYMP8z0xR-32" value="" style="edgeStyle=none;orthogonalLoop=1;jettySize=auto;html=1;endArrow=classic;startArrow=classic;endSize=8;startSize=8;rounded=0;" edge="1" parent="1" source="EJz1VtDRFE4pYMP8z0xR-19" target="EJz1VtDRFE4pYMP8z0xR-18">
          <mxGeometry width="100" relative="1" as="geometry">
            <mxPoint x="790" y="320" as="sourcePoint" />
            <mxPoint x="890" y="320" as="targetPoint" />
            <Array as="points" />
          </mxGeometry>
        </mxCell>
        <mxCell id="EJz1VtDRFE4pYMP8z0xR-33" value="" style="edgeStyle=none;orthogonalLoop=1;jettySize=auto;html=1;endArrow=classic;startArrow=classic;endSize=8;startSize=8;rounded=0;" edge="1" parent="1">
          <mxGeometry width="100" relative="1" as="geometry">
            <mxPoint x="760" y="420" as="sourcePoint" />
            <mxPoint x="950" y="380" as="targetPoint" />
            <Array as="points" />
          </mxGeometry>
        </mxCell>
        <mxCell id="EJz1VtDRFE4pYMP8z0xR-34" value="" style="edgeStyle=none;orthogonalLoop=1;jettySize=auto;html=1;endArrow=classic;startArrow=classic;endSize=8;startSize=8;rounded=0;" edge="1" parent="1">
          <mxGeometry width="100" relative="1" as="geometry">
            <mxPoint x="770" y="450" as="sourcePoint" />
            <mxPoint x="940" y="480" as="targetPoint" />
            <Array as="points" />
          </mxGeometry>
        </mxCell>
        <mxCell id="EJz1VtDRFE4pYMP8z0xR-35" value="" style="edgeStyle=none;orthogonalLoop=1;jettySize=auto;html=1;endArrow=classic;startArrow=classic;endSize=8;startSize=8;rounded=0;" edge="1" parent="1">
          <mxGeometry width="100" relative="1" as="geometry">
            <mxPoint x="770" y="480" as="sourcePoint" />
            <mxPoint x="940" y="570" as="targetPoint" />
            <Array as="points" />
          </mxGeometry>
        </mxCell>
        <mxCell id="EJz1VtDRFE4pYMP8z0xR-36" value="" style="edgeStyle=none;orthogonalLoop=1;jettySize=auto;html=1;rounded=0;" edge="1" parent="1">
          <mxGeometry width="100" relative="1" as="geometry">
            <mxPoint x="120" y="140" as="sourcePoint" />
            <mxPoint x="160" y="180" as="targetPoint" />
            <Array as="points" />
          </mxGeometry>
        </mxCell>
        <mxCell id="EJz1VtDRFE4pYMP8z0xR-37" value="" style="edgeStyle=none;orthogonalLoop=1;jettySize=auto;html=1;rounded=0;exitX=0.5;exitY=1;exitDx=0;exitDy=0;exitPerimeter=0;" edge="1" parent="1" source="EJz1VtDRFE4pYMP8z0xR-2">
          <mxGeometry width="100" relative="1" as="geometry">
            <mxPoint x="160" y="290" as="sourcePoint" />
            <mxPoint x="190" y="320" as="targetPoint" />
            <Array as="points" />
          </mxGeometry>
        </mxCell>
        <mxCell id="EJz1VtDRFE4pYMP8z0xR-38" value="" style="edgeStyle=none;orthogonalLoop=1;jettySize=auto;html=1;rounded=0;" edge="1" parent="1" target="EJz1VtDRFE4pYMP8z0xR-25">
          <mxGeometry width="100" relative="1" as="geometry">
            <mxPoint x="280" y="420" as="sourcePoint" />
            <mxPoint x="350" y="400" as="targetPoint" />
            <Array as="points" />
          </mxGeometry>
        </mxCell>
        <mxCell id="EJz1VtDRFE4pYMP8z0xR-39" value="" style="edgeStyle=none;orthogonalLoop=1;jettySize=auto;html=1;rounded=0;exitX=0.975;exitY=0.51;exitDx=0;exitDy=0;exitPerimeter=0;" edge="1" parent="1" source="EJz1VtDRFE4pYMP8z0xR-25">
          <mxGeometry width="100" relative="1" as="geometry">
            <mxPoint x="500" y="420" as="sourcePoint" />
            <mxPoint x="600" y="420" as="targetPoint" />
            <Array as="points" />
          </mxGeometry>
        </mxCell>
        <mxCell id="EJz1VtDRFE4pYMP8z0xR-40" value="" style="outlineConnect=0;dashed=0;verticalLabelPosition=bottom;verticalAlign=top;align=center;html=1;shape=mxgraph.aws3.dynamo_db;fillColor=#2E73B8;gradientColor=none;" vertex="1" parent="1">
          <mxGeometry x="1240" y="220" width="72" height="81" as="geometry" />
        </mxCell>
        <mxCell id="EJz1VtDRFE4pYMP8z0xR-41" value="" style="outlineConnect=0;dashed=0;verticalLabelPosition=bottom;verticalAlign=top;align=center;html=1;shape=mxgraph.aws3.dynamo_db;fillColor=#2E73B8;gradientColor=none;" vertex="1" parent="1">
          <mxGeometry x="1240" y="319" width="72" height="81" as="geometry" />
        </mxCell>
        <mxCell id="EJz1VtDRFE4pYMP8z0xR-42" value="" style="outlineConnect=0;dashed=0;verticalLabelPosition=bottom;verticalAlign=top;align=center;html=1;shape=mxgraph.aws3.dynamo_db;fillColor=#2E73B8;gradientColor=none;" vertex="1" parent="1">
          <mxGeometry x="1240" y="417" width="72" height="81" as="geometry" />
        </mxCell>
        <mxCell id="EJz1VtDRFE4pYMP8z0xR-43" value="" style="outlineConnect=0;dashed=0;verticalLabelPosition=bottom;verticalAlign=top;align=center;html=1;shape=mxgraph.aws3.dynamo_db;fillColor=#2E73B8;gradientColor=none;" vertex="1" parent="1">
          <mxGeometry x="1240" y="522.5" width="72" height="81" as="geometry" />
        </mxCell>
        <mxCell id="EJz1VtDRFE4pYMP8z0xR-44" value="" style="edgeStyle=none;orthogonalLoop=1;jettySize=auto;html=1;rounded=0;exitX=1.051;exitY=0.406;exitDx=0;exitDy=0;exitPerimeter=0;entryX=0;entryY=0.5;entryDx=0;entryDy=0;entryPerimeter=0;" edge="1" parent="1" source="EJz1VtDRFE4pYMP8z0xR-18" target="EJz1VtDRFE4pYMP8z0xR-40">
          <mxGeometry width="100" relative="1" as="geometry">
            <mxPoint x="990" y="240" as="sourcePoint" />
            <mxPoint x="1090" y="240" as="targetPoint" />
            <Array as="points" />
          </mxGeometry>
        </mxCell>
        <mxCell id="EJz1VtDRFE4pYMP8z0xR-45" value="" style="edgeStyle=none;orthogonalLoop=1;jettySize=auto;html=1;rounded=0;exitX=0.003;exitY=0.182;exitDx=0;exitDy=0;exitPerimeter=0;entryX=0;entryY=0.5;entryDx=0;entryDy=0;entryPerimeter=0;" edge="1" parent="1" source="EJz1VtDRFE4pYMP8z0xR-29" target="EJz1VtDRFE4pYMP8z0xR-41">
          <mxGeometry width="100" relative="1" as="geometry">
            <mxPoint x="1100" y="340" as="sourcePoint" />
            <mxPoint x="1200" y="340" as="targetPoint" />
            <Array as="points" />
          </mxGeometry>
        </mxCell>
        <mxCell id="EJz1VtDRFE4pYMP8z0xR-46" value="" style="edgeStyle=none;orthogonalLoop=1;jettySize=auto;html=1;rounded=0;" edge="1" parent="1" source="EJz1VtDRFE4pYMP8z0xR-22">
          <mxGeometry width="100" relative="1" as="geometry">
            <mxPoint x="1110" y="430" as="sourcePoint" />
            <mxPoint x="1230" y="450" as="targetPoint" />
            <Array as="points" />
          </mxGeometry>
        </mxCell>
        <mxCell id="EJz1VtDRFE4pYMP8z0xR-47" value="" style="edgeStyle=none;orthogonalLoop=1;jettySize=auto;html=1;rounded=0;entryX=0;entryY=0.5;entryDx=0;entryDy=0;entryPerimeter=0;" edge="1" parent="1" source="EJz1VtDRFE4pYMP8z0xR-31" target="EJz1VtDRFE4pYMP8z0xR-43">
          <mxGeometry width="100" relative="1" as="geometry">
            <mxPoint x="1080" y="530" as="sourcePoint" />
            <mxPoint x="1180" y="530" as="targetPoint" />
            <Array as="points" />
          </mxGeometry>
        </mxCell>
        <mxCell id="EJz1VtDRFE4pYMP8z0xR-48" value="" style="image;aspect=fixed;perimeter=ellipsePerimeter;html=1;align=center;shadow=0;dashed=0;fontColor=#4277BB;labelBackgroundColor=default;fontSize=12;spacingTop=3;image=img/lib/ibm/applications/microservice.svg;" vertex="1" parent="1">
          <mxGeometry x="1400" y="710" width="82.2" height="60" as="geometry" />
        </mxCell>
        <mxCell id="EJz1VtDRFE4pYMP8z0xR-49" value="" style="image;aspect=fixed;perimeter=ellipsePerimeter;html=1;align=center;shadow=0;dashed=0;fontColor=#4277BB;labelBackgroundColor=default;fontSize=12;spacingTop=3;image=img/lib/ibm/applications/microservice.svg;" vertex="1" parent="1">
          <mxGeometry x="1520" y="710" width="82.2" height="60" as="geometry" />
        </mxCell>
        <mxCell id="EJz1VtDRFE4pYMP8z0xR-50" value="" style="image;aspect=fixed;perimeter=ellipsePerimeter;html=1;align=center;shadow=0;dashed=0;fontColor=#4277BB;labelBackgroundColor=default;fontSize=12;spacingTop=3;image=img/lib/ibm/applications/microservice.svg;" vertex="1" parent="1">
          <mxGeometry x="1640" y="710" width="82.2" height="60" as="geometry" />
        </mxCell>
        <mxCell id="EJz1VtDRFE4pYMP8z0xR-51" value="" style="image;aspect=fixed;perimeter=ellipsePerimeter;html=1;align=center;shadow=0;dashed=0;fontColor=#4277BB;labelBackgroundColor=default;fontSize=12;spacingTop=3;image=img/lib/ibm/applications/microservice.svg;" vertex="1" parent="1">
          <mxGeometry x="1750" y="710" width="82.2" height="60" as="geometry" />
        </mxCell>
        <mxCell id="EJz1VtDRFE4pYMP8z0xR-52" value="" style="verticalLabelPosition=bottom;html=1;verticalAlign=top;align=center;strokeColor=none;fillColor=#00BEF2;shape=mxgraph.azure.user;" vertex="1" parent="1">
          <mxGeometry x="2190" y="1440" width="47.5" height="50" as="geometry" />
        </mxCell>
        <mxCell id="EJz1VtDRFE4pYMP8z0xR-56" value="" style="group" vertex="1" connectable="0" parent="1">
          <mxGeometry x="70" y="700" width="95" height="540" as="geometry" />
        </mxCell>
        <mxCell id="EJz1VtDRFE4pYMP8z0xR-13" value="" style="image;aspect=fixed;html=1;points=[];align=center;fontSize=12;image=img/lib/azure2/databases/SQL_Database.svg;" vertex="1" parent="EJz1VtDRFE4pYMP8z0xR-56">
          <mxGeometry x="5" width="90" height="120" as="geometry" />
        </mxCell>
        <mxCell id="EJz1VtDRFE4pYMP8z0xR-53" value="" style="image;aspect=fixed;html=1;points=[];align=center;fontSize=12;image=img/lib/azure2/databases/SQL_Database.svg;" vertex="1" parent="EJz1VtDRFE4pYMP8z0xR-56">
          <mxGeometry x="5" y="140" width="90" height="120" as="geometry" />
        </mxCell>
        <mxCell id="EJz1VtDRFE4pYMP8z0xR-54" value="" style="image;aspect=fixed;html=1;points=[];align=center;fontSize=12;image=img/lib/azure2/databases/SQL_Database.svg;" vertex="1" parent="EJz1VtDRFE4pYMP8z0xR-56">
          <mxGeometry y="280" width="90" height="120" as="geometry" />
        </mxCell>
        <mxCell id="EJz1VtDRFE4pYMP8z0xR-55" value="" style="image;aspect=fixed;html=1;points=[];align=center;fontSize=12;image=img/lib/azure2/databases/SQL_Database.svg;" vertex="1" parent="EJz1VtDRFE4pYMP8z0xR-56">
          <mxGeometry x="5" y="420" width="90" height="120" as="geometry" />
        </mxCell>
        <mxCell id="EJz1VtDRFE4pYMP8z0xR-57" value="" style="outlineConnect=0;dashed=0;verticalLabelPosition=bottom;verticalAlign=top;align=center;html=1;shape=mxgraph.aws3.application_load_balancer;fillColor=#F58534;gradientColor=none;" vertex="1" parent="1">
          <mxGeometry x="1722.2" y="1427.5" width="69" height="72" as="geometry" />
        </mxCell>
        <mxCell id="EJz1VtDRFE4pYMP8z0xR-58" value="" style="outlineConnect=0;dashed=0;verticalLabelPosition=bottom;verticalAlign=top;align=center;html=1;shape=mxgraph.aws3.elastic_load_balancing;fillColor=#F58536;gradientColor=none;" vertex="1" parent="1">
          <mxGeometry x="1930" y="1417" width="76.5" height="93" as="geometry" />
        </mxCell>
        <mxCell id="EJz1VtDRFE4pYMP8z0xR-59" style="edgeStyle=orthogonalEdgeStyle;rounded=0;orthogonalLoop=1;jettySize=auto;html=1;exitX=0.28;exitY=0.28;exitDx=0;exitDy=0;exitPerimeter=0;entryX=0.84;entryY=0.28;entryDx=0;entryDy=0;entryPerimeter=0;" edge="1" parent="1" source="EJz1VtDRFE4pYMP8z0xR-52" target="EJz1VtDRFE4pYMP8z0xR-52">
          <mxGeometry relative="1" as="geometry" />
        </mxCell>
        <mxCell id="EJz1VtDRFE4pYMP8z0xR-60" value="" style="image;aspect=fixed;perimeter=ellipsePerimeter;html=1;align=center;shadow=0;dashed=0;spacingTop=3;image=img/lib/active_directory/server_farm.svg;" vertex="1" parent="1">
          <mxGeometry x="1450" y="1405" width="120" height="120" as="geometry" />
        </mxCell>
        <mxCell id="EJz1VtDRFE4pYMP8z0xR-61" value="" style="verticalLabelPosition=bottom;sketch=0;aspect=fixed;html=1;verticalAlign=top;strokeColor=none;align=center;outlineConnect=0;shape=mxgraph.citrix.middleware;" vertex="1" parent="1">
          <mxGeometry x="1450" y="1070.15" width="231.1" height="137.85" as="geometry" />
        </mxCell>
        <mxCell id="EJz1VtDRFE4pYMP8z0xR-62" value="" style="image;sketch=0;aspect=fixed;html=1;points=[];align=center;fontSize=12;image=img/lib/mscae/Resource_Graph_Explorer.svg;" vertex="1" parent="1">
          <mxGeometry x="1168" y="1084.79" width="101" height="103.06" as="geometry" />
        </mxCell>
        <mxCell id="EJz1VtDRFE4pYMP8z0xR-63" value="" style="edgeStyle=none;orthogonalLoop=1;jettySize=auto;html=1;rounded=0;exitX=0.14;exitY=0.65;exitDx=0;exitDy=0;exitPerimeter=0;" edge="1" parent="1" source="EJz1VtDRFE4pYMP8z0xR-52">
          <mxGeometry width="100" relative="1" as="geometry">
            <mxPoint x="2030" y="1460" as="sourcePoint" />
            <mxPoint x="2010" y="1465" as="targetPoint" />
            <Array as="points" />
          </mxGeometry>
        </mxCell>
        <mxCell id="EJz1VtDRFE4pYMP8z0xR-66" value="" style="edgeStyle=none;orthogonalLoop=1;jettySize=auto;html=1;rounded=0;" edge="1" parent="1">
          <mxGeometry width="100" relative="1" as="geometry">
            <mxPoint x="1720" y="1468" as="sourcePoint" />
            <mxPoint x="1563" y="1459.5" as="targetPoint" />
            <Array as="points" />
          </mxGeometry>
        </mxCell>
        <mxCell id="EJz1VtDRFE4pYMP8z0xR-67" value="" style="edgeStyle=none;orthogonalLoop=1;jettySize=auto;html=1;rounded=0;" edge="1" parent="1">
          <mxGeometry width="100" relative="1" as="geometry">
            <mxPoint x="1910" y="1469" as="sourcePoint" />
            <mxPoint x="1800" y="1461" as="targetPoint" />
            <Array as="points" />
          </mxGeometry>
        </mxCell>
        <mxCell id="EJz1VtDRFE4pYMP8z0xR-69" value="&lt;font style=&quot;font-size: 14px;&quot;&gt;Application Middeware&lt;/font&gt;" style="text;html=1;align=center;verticalAlign=middle;resizable=0;points=[];autosize=1;strokeColor=none;fillColor=none;" vertex="1" parent="1">
          <mxGeometry x="1620" y="1070.15" width="160" height="30" as="geometry" />
        </mxCell>
        <mxCell id="EJz1VtDRFE4pYMP8z0xR-70" value="Users DB" style="text;html=1;align=center;verticalAlign=middle;resizable=0;points=[];autosize=1;strokeColor=none;fillColor=none;" vertex="1" parent="1">
          <mxGeometry x="135" y="1238" width="70" height="30" as="geometry" />
        </mxCell>
        <mxCell id="EJz1VtDRFE4pYMP8z0xR-71" value="PostsDB" style="text;html=1;align=center;verticalAlign=middle;resizable=0;points=[];autosize=1;strokeColor=none;fillColor=none;" vertex="1" parent="1">
          <mxGeometry x="155" y="1038" width="70" height="30" as="geometry" />
        </mxCell>
        <mxCell id="EJz1VtDRFE4pYMP8z0xR-72" value="PostsDB" style="text;html=1;align=center;verticalAlign=middle;resizable=0;points=[];autosize=1;strokeColor=none;fillColor=none;" vertex="1" parent="1">
          <mxGeometry x="155" y="908" width="70" height="30" as="geometry" />
        </mxCell>
        <mxCell id="EJz1VtDRFE4pYMP8z0xR-73" value="PostsDB" style="text;html=1;align=center;verticalAlign=middle;resizable=0;points=[];autosize=1;strokeColor=none;fillColor=none;" vertex="1" parent="1">
          <mxGeometry x="175" y="768" width="70" height="30" as="geometry" />
        </mxCell>
        <mxCell id="EJz1VtDRFE4pYMP8z0xR-74" value="Graph DB Exploere" style="text;html=1;align=center;verticalAlign=middle;resizable=0;points=[];autosize=1;strokeColor=none;fillColor=none;" vertex="1" parent="1">
          <mxGeometry x="1123" y="1020" width="130" height="30" as="geometry" />
        </mxCell>
        <mxCell id="EJz1VtDRFE4pYMP8z0xR-76" value="" style="edgeStyle=none;orthogonalLoop=1;jettySize=auto;html=1;endArrow=classic;startArrow=classic;endSize=8;startSize=8;rounded=0;" edge="1" parent="1" target="EJz1VtDRFE4pYMP8z0xR-62">
          <mxGeometry width="100" relative="1" as="geometry">
            <mxPoint x="170" y="1190" as="sourcePoint" />
            <mxPoint x="840" y="1170" as="targetPoint" />
            <Array as="points" />
          </mxGeometry>
        </mxCell>
        <mxCell id="EJz1VtDRFE4pYMP8z0xR-77" value="Input: USERID; OUTPUT: Friends, Intrests etc. " style="text;html=1;align=center;verticalAlign=middle;resizable=0;points=[];autosize=1;strokeColor=none;fillColor=none;" vertex="1" parent="1">
          <mxGeometry x="545" y="1178" width="270" height="30" as="geometry" />
        </mxCell>
        <mxCell id="EJz1VtDRFE4pYMP8z0xR-79" value="" style="edgeStyle=none;orthogonalLoop=1;jettySize=auto;html=1;endArrow=classic;startArrow=classic;endSize=8;startSize=8;rounded=0;" edge="1" parent="1" target="EJz1VtDRFE4pYMP8z0xR-61">
          <mxGeometry width="100" relative="1" as="geometry">
            <mxPoint x="1270" y="1131.93" as="sourcePoint" />
            <mxPoint x="1370" y="1131.93" as="targetPoint" />
            <Array as="points" />
          </mxGeometry>
        </mxCell>
        <mxCell id="EJz1VtDRFE4pYMP8z0xR-80" value="userID" style="text;html=1;align=center;verticalAlign=middle;resizable=0;points=[];autosize=1;strokeColor=none;fillColor=none;" vertex="1" parent="1">
          <mxGeometry x="1300" y="1078" width="60" height="30" as="geometry" />
        </mxCell>
        <mxCell id="EJz1VtDRFE4pYMP8z0xR-81" value="" style="edgeStyle=none;orthogonalLoop=1;jettySize=auto;html=1;endArrow=classic;startArrow=classic;endSize=8;startSize=8;rounded=0;" edge="1" parent="1" target="EJz1VtDRFE4pYMP8z0xR-61">
          <mxGeometry width="100" relative="1" as="geometry">
            <mxPoint x="1510" y="1400" as="sourcePoint" />
            <mxPoint x="1560" y="1280" as="targetPoint" />
            <Array as="points" />
          </mxGeometry>
        </mxCell>
        <mxCell id="EJz1VtDRFE4pYMP8z0xR-82" value="MetaData" style="text;html=1;align=center;verticalAlign=middle;resizable=0;points=[];autosize=1;strokeColor=none;fillColor=none;" vertex="1" parent="1">
          <mxGeometry x="1510" y="1298" width="80" height="30" as="geometry" />
        </mxCell>
        <mxCell id="EJz1VtDRFE4pYMP8z0xR-83" value="" style="edgeStyle=none;orthogonalLoop=1;jettySize=auto;html=1;endArrow=classic;startArrow=classic;endSize=8;startSize=8;rounded=0;entryX=0.5;entryY=1;entryDx=0;entryDy=0;" edge="1" parent="1" source="EJz1VtDRFE4pYMP8z0xR-61" target="EJz1VtDRFE4pYMP8z0xR-48">
          <mxGeometry width="100" relative="1" as="geometry">
            <mxPoint x="1400" y="910" as="sourcePoint" />
            <mxPoint x="1500" y="910" as="targetPoint" />
            <Array as="points" />
          </mxGeometry>
        </mxCell>
        <mxCell id="EJz1VtDRFE4pYMP8z0xR-84" value="" style="edgeStyle=none;orthogonalLoop=1;jettySize=auto;html=1;endArrow=classic;startArrow=classic;endSize=8;startSize=8;rounded=0;" edge="1" parent="1">
          <mxGeometry width="100" relative="1" as="geometry">
            <mxPoint x="1551" y="1060" as="sourcePoint" />
            <mxPoint x="1540" y="780" as="targetPoint" />
            <Array as="points" />
          </mxGeometry>
        </mxCell>
        <mxCell id="EJz1VtDRFE4pYMP8z0xR-85" value="" style="edgeStyle=none;orthogonalLoop=1;jettySize=auto;html=1;endArrow=classic;startArrow=classic;endSize=8;startSize=8;rounded=0;" edge="1" parent="1">
          <mxGeometry width="100" relative="1" as="geometry">
            <mxPoint x="1561" y="1050" as="sourcePoint" />
            <mxPoint x="1670" y="780" as="targetPoint" />
            <Array as="points" />
          </mxGeometry>
        </mxCell>
        <mxCell id="EJz1VtDRFE4pYMP8z0xR-86" value="" style="edgeStyle=none;orthogonalLoop=1;jettySize=auto;html=1;endArrow=classic;startArrow=classic;endSize=8;startSize=8;rounded=0;" edge="1" parent="1">
          <mxGeometry width="100" relative="1" as="geometry">
            <mxPoint x="1571" y="1080" as="sourcePoint" />
            <mxPoint x="1770" y="780" as="targetPoint" />
            <Array as="points" />
          </mxGeometry>
        </mxCell>
        <mxCell id="EJz1VtDRFE4pYMP8z0xR-87" value="" style="edgeStyle=none;orthogonalLoop=1;jettySize=auto;html=1;rounded=0;" edge="1" parent="1">
          <mxGeometry width="100" relative="1" as="geometry">
            <mxPoint x="1320" y="570" as="sourcePoint" />
            <mxPoint x="1430" y="700" as="targetPoint" />
            <Array as="points" />
          </mxGeometry>
        </mxCell>
        <mxCell id="EJz1VtDRFE4pYMP8z0xR-88" value="" style="edgeStyle=none;orthogonalLoop=1;jettySize=auto;html=1;rounded=0;" edge="1" parent="1">
          <mxGeometry width="100" relative="1" as="geometry">
            <mxPoint x="1320" y="250" as="sourcePoint" />
            <mxPoint x="1770" y="708" as="targetPoint" />
            <Array as="points">
              <mxPoint x="1790" y="250" />
            </Array>
          </mxGeometry>
        </mxCell>
        <mxCell id="EJz1VtDRFE4pYMP8z0xR-89" value="" style="edgeStyle=none;orthogonalLoop=1;jettySize=auto;html=1;rounded=0;" edge="1" parent="1">
          <mxGeometry width="100" relative="1" as="geometry">
            <mxPoint x="1320" y="360" as="sourcePoint" />
            <mxPoint x="1670" y="708" as="targetPoint" />
            <Array as="points">
              <mxPoint x="1660" y="370" />
            </Array>
          </mxGeometry>
        </mxCell>
        <mxCell id="EJz1VtDRFE4pYMP8z0xR-90" value="" style="edgeStyle=none;orthogonalLoop=1;jettySize=auto;html=1;rounded=0;" edge="1" parent="1">
          <mxGeometry width="100" relative="1" as="geometry">
            <mxPoint x="1320" y="460" as="sourcePoint" />
            <mxPoint x="1560" y="708" as="targetPoint" />
            <Array as="points">
              <mxPoint x="1560" y="460" />
            </Array>
          </mxGeometry>
        </mxCell>
        <mxCell id="EJz1VtDRFE4pYMP8z0xR-91" value="App Specific Microservice Instances" style="text;html=1;align=center;verticalAlign=middle;resizable=0;points=[];autosize=1;strokeColor=none;fillColor=none;" vertex="1" parent="1">
          <mxGeometry x="1832.2" y="738" width="220" height="30" as="geometry" />
        </mxCell>
        <mxCell id="EJz1VtDRFE4pYMP8z0xR-92" value="Location" style="text;html=1;align=center;verticalAlign=middle;resizable=0;points=[];autosize=1;strokeColor=none;fillColor=none;" vertex="1" parent="1">
          <mxGeometry x="1665" y="938" width="70" height="30" as="geometry" />
        </mxCell>
        <mxCell id="EJz1VtDRFE4pYMP8z0xR-93" value="User Intrests" style="text;html=1;align=center;verticalAlign=middle;resizable=0;points=[];autosize=1;strokeColor=none;fillColor=none;" vertex="1" parent="1">
          <mxGeometry x="1615" y="848" width="90" height="30" as="geometry" />
        </mxCell>
        <mxCell id="EJz1VtDRFE4pYMP8z0xR-94" value="Freinds" style="text;html=1;align=center;verticalAlign=middle;resizable=0;points=[];autosize=1;strokeColor=none;fillColor=none;" vertex="1" parent="1">
          <mxGeometry x="1490" y="818" width="60" height="30" as="geometry" />
        </mxCell>
        <mxCell id="EJz1VtDRFE4pYMP8z0xR-95" value="User HashTags" style="text;html=1;align=center;verticalAlign=middle;resizable=0;points=[];autosize=1;strokeColor=none;fillColor=none;" vertex="1" parent="1">
          <mxGeometry x="1386.1" y="860" width="110" height="30" as="geometry" />
        </mxCell>
        <mxCell id="EJz1VtDRFE4pYMP8z0xR-96" value="Machine&lt;br&gt;Learning" style="aspect=fixed;html=1;perimeter=none;align=center;shadow=0;dashed=0;image;fontSize=12;image=img/lib/mscae/Machine_Learning.svg;labelBackgroundColor=#ffffff;fillColor=#4D9900;" vertex="1" parent="1">
          <mxGeometry x="1980" y="1078" width="49" height="50" as="geometry" />
        </mxCell>
        <mxCell id="EJz1VtDRFE4pYMP8z0xR-97" value="" style="edgeStyle=none;orthogonalLoop=1;jettySize=auto;html=1;endArrow=classic;startArrow=classic;endSize=8;startSize=8;rounded=0;" edge="1" parent="1" source="EJz1VtDRFE4pYMP8z0xR-61">
          <mxGeometry width="100" relative="1" as="geometry">
            <mxPoint x="1740" y="1140" as="sourcePoint" />
            <mxPoint x="1970" y="1140" as="targetPoint" />
            <Array as="points" />
          </mxGeometry>
        </mxCell>
        <mxCell id="EJz1VtDRFE4pYMP8z0xR-98" value="&lt;div&gt;Device Specific Rendering,&lt;/div&gt;&lt;div&gt;Pagination&lt;/div&gt;&lt;div&gt;API Response rendering&lt;/div&gt;" style="shape=note;whiteSpace=wrap;html=1;backgroundOutline=1;fontColor=#000000;darkOpacity=0.05;fillColor=#FFF9B2;strokeColor=none;fillStyle=solid;direction=west;gradientDirection=north;gradientColor=#FFF2A1;shadow=1;size=20;pointerEvents=1;" vertex="1" parent="1">
          <mxGeometry x="1290" y="1480" width="140" height="160" as="geometry" />
        </mxCell>
        <mxCell id="EJz1VtDRFE4pYMP8z0xR-99" value="Cloud CDN" style="text;html=1;align=center;verticalAlign=middle;resizable=0;points=[];autosize=1;strokeColor=none;fillColor=none;" vertex="1" parent="1">
          <mxGeometry x="400" y="1528" width="80" height="30" as="geometry" />
        </mxCell>
        <mxCell id="EJz1VtDRFE4pYMP8z0xR-101" value="" style="edgeStyle=none;orthogonalLoop=1;jettySize=auto;html=1;rounded=0;" edge="1" parent="1">
          <mxGeometry width="100" relative="1" as="geometry">
            <mxPoint x="500" y="1490" as="sourcePoint" />
            <mxPoint x="2210" y="1500" as="targetPoint" />
            <Array as="points">
              <mxPoint x="730" y="1620" />
            </Array>
          </mxGeometry>
        </mxCell>
      </root>
    </mxGraphModel>
  </diagram>
</mxfile>
